<svg xmlns="http://www.w3.org/2000/svg" xmlns:xlink="http://www.w3.org/1999/xlink" version="1.1" x="0px" y="0px" viewBox="0 0 100 125" style="enable-background:new 0 0 100 100;" xml:space="preserve"><style type="text/css">
	.st0{fill:none;stroke:#000000;stroke-width:2;stroke-linecap:round;stroke-linejoin:round;stroke-miterlimit:10;}
</style><path d="M89.6,85.5h-7.6l0.4-6.4c0.2-1.8-0.4-3.6-1.6-4.9c-1-1.1-2.3-1.8-3.7-2v-1.4c1.1-0.7,4.1-2.4,6-3.5c0.5-0.3,0.6-0.9,0.4-1.4  c-0.3-0.5-0.9-0.6-1.4-0.4c-2.4,1.4-4,2.3-5,2.9V65c0.9-0.6,3.2-1.9,5.2-3.1c0.5-0.3,0.6-0.9,0.4-1.4c-0.3-0.5-0.9-0.6-1.4-0.4  c-2,1.1-3.3,1.9-4.2,2.5v-3.5c0.7-0.5,2.3-1.4,3.7-2.2c0.5-0.3,0.6-0.9,0.4-1.4c-0.3-0.5-0.9-0.6-1.4-0.4c-1.2,0.7-2,1.2-2.7,1.6  v-2.3c0-0.6-0.4-1-1-1s-1,0.4-1,1v2.3c-0.7-0.4-1.6-0.9-2.7-1.6c-0.5-0.3-1.1-0.1-1.4,0.4s-0.1,1.1,0.4,1.4c1.4,0.8,3,1.8,3.7,2.2  v3.5c-0.9-0.6-2.3-1.3-4.3-2.5c-0.5-0.3-1.1-0.1-1.4,0.4c-0.3,0.5-0.1,1.1,0.4,1.4c2.1,1.2,4.4,2.6,5.3,3.1v3.5  c-1-0.6-2.6-1.5-5-2.9c-0.5-0.3-1.1-0.1-1.4,0.4c-0.3,0.5-0.1,1.1,0.4,1.4c1.9,1.1,5,2.9,6.1,3.5v1.4c-1.4,0.2-2.7,0.9-3.7,2  c-1.2,1.3-1.8,3.1-1.6,4.9l0.4,6.4h-5l0.4-6.4c0.2-1.8-0.4-3.6-1.6-4.9c-1-1.1-2.3-1.8-3.7-2v-1.4c1.1-0.7,4.1-2.4,6-3.5  c0.5-0.3,0.6-0.9,0.4-1.4c-0.3-0.5-0.9-0.6-1.4-0.4c-2.4,1.4-4,2.3-5,2.9V65c0.9-0.6,3.2-1.9,5.2-3.1c0.5-0.3,0.6-0.9,0.4-1.4  c-0.3-0.5-0.9-0.6-1.4-0.4c-2,1.1-3.3,1.9-4.2,2.5v-3.5c0.7-0.5,2.3-1.4,3.7-2.2c0.5-0.3,0.6-0.9,0.4-1.4c-0.3-0.5-0.9-0.6-1.4-0.4  c-1.2,0.7-2,1.2-2.7,1.6v-2.3c0-0.6-0.4-1-1-1s-1,0.4-1,1v2.3c-0.7-0.4-1.6-0.9-2.7-1.6c-0.5-0.3-1.1-0.1-1.4,0.4S54,56.7,54.4,57  c1.4,0.8,3,1.8,3.7,2.2v3.5c-0.9-0.6-2.3-1.3-4.3-2.5c-0.5-0.3-1.1-0.1-1.4,0.4c-0.3,0.5-0.1,1.1,0.4,1.4c2.1,1.2,4.4,2.6,5.3,3.1  v3.5c-1-0.6-2.6-1.5-5-2.9c-0.5-0.3-1.1-0.1-1.4,0.4c-0.3,0.5-0.1,1.1,0.4,1.4c1.9,1.1,5,2.9,6.1,3.5v1.4c-1.4,0.2-2.7,0.9-3.7,2  c-1.2,1.3-1.8,3.1-1.6,4.9l0.4,6.4h-5l0.4-6.4c0.2-1.8-0.4-3.6-1.6-4.9c-1-1.1-2.3-1.8-3.7-2v-1.4c1.1-0.7,4.1-2.4,6-3.5  c0.5-0.3,0.6-0.9,0.4-1.4c-0.3-0.5-0.9-0.6-1.4-0.4c-2.4,1.4-4,2.3-5,2.9V65c0.9-0.6,3.2-1.9,5.2-3.1c0.5-0.3,0.6-0.9,0.4-1.4  c-0.3-0.5-0.9-0.6-1.4-0.4c-2,1.1-3.3,1.9-4.2,2.5v-3.5c0.7-0.5,2.3-1.4,3.7-2.2c0.5-0.3,0.6-0.9,0.4-1.4c-0.3-0.5-0.9-0.6-1.4-0.4  c-1.2,0.7-2,1.2-2.7,1.6v-2.3c0-0.6-0.4-1-1-1s-1,0.4-1,1v2.3c-0.7-0.4-1.6-0.9-2.7-1.6c-0.5-0.3-1.1-0.1-1.4,0.4  c-0.3,0.5-0.1,1.1,0.4,1.4c1.4,0.8,3,1.8,3.7,2.2v3.5c-0.9-0.6-2.3-1.3-4.3-2.5c-0.5-0.3-1.1-0.1-1.4,0.4c-0.3,0.5-0.1,1.1,0.4,1.4  c2.1,1.2,4.4,2.6,5.3,3.1v3.5c-1-0.6-2.6-1.5-5-2.9c-0.5-0.3-1.1-0.1-1.4,0.4c-0.3,0.5-0.1,1.1,0.4,1.4c1.9,1.1,5,2.9,6.1,3.5v1.4  c-1.4,0.2-2.7,0.9-3.7,2c-1.2,1.3-1.8,3.1-1.6,4.9l0.4,6.4h-5l0.4-6.4c0.2-1.8-0.4-3.6-1.6-4.9c-1-1.1-2.3-1.8-3.7-2v-1.4  c1.1-0.7,4.1-2.4,6-3.5c0.5-0.3,0.6-0.9,0.4-1.4c-0.3-0.5-0.9-0.6-1.4-0.4c-2.4,1.4-4,2.3-5,2.9V65c0.9-0.6,3.2-1.9,5.2-3.1  c0.5-0.3,0.6-0.9,0.4-1.4c-0.3-0.5-0.9-0.6-1.4-0.4c-2,1.1-3.3,1.9-4.2,2.5v-3.5c0.7-0.5,2.3-1.4,3.7-2.2c0.5-0.3,0.6-0.9,0.4-1.4  c-0.3-0.5-0.9-0.6-1.4-0.4c-1.2,0.7-2,1.2-2.7,1.6v-2.3c0-0.6-0.4-1-1-1s-1,0.4-1,1v2.3c-0.7-0.4-1.6-0.9-2.7-1.6  c-0.5-0.3-1.1-0.1-1.4,0.4s-0.1,1.1,0.4,1.4c1.4,0.8,3,1.8,3.7,2.2v3.5c-0.9-0.6-2.3-1.3-4.3-2.5c-0.5-0.3-1.1-0.1-1.4,0.4  c-0.3,0.5-0.1,1.1,0.4,1.4c2.1,1.2,4.4,2.6,5.3,3.1v3.5c-1-0.6-2.6-1.5-5-2.9c-0.5-0.3-1.1-0.1-1.4,0.4c-0.3,0.5-0.1,1.1,0.4,1.4  c1.9,1.1,5,2.9,6.1,3.5v1.4c-1.4,0.2-2.7,0.9-3.7,2c-1.2,1.3-1.8,3.1-1.6,4.9l0.4,6.4h-7.9c-0.6,0-1,0.4-1,1s0.4,1,1,1h77.9  c0.6,0,1-0.4,1-1S90.1,85.5,89.6,85.5z M72.8,75.6c0.8-0.9,2-1.4,3.2-1.4c1.2,0,2.4,0.5,3.2,1.4c0.8,0.9,1.2,2.1,1.1,3.4l0,0h-8.7  l0-0.1C71.6,77.7,72,76.5,72.8,75.6z M71.8,81h8.4l-0.3,4.5h-7.8L71.8,81z M56,75.6c0.8-0.9,2-1.4,3.2-1.4c1.2,0,2.4,0.5,3.2,1.4  c0.8,0.9,1.2,2.1,1.1,3.4l0,0h-8.7l0-0.1C54.7,77.7,55.1,76.5,56,75.6z M55,81h8.4l-0.3,4.5h-7.8L55,81z M39.1,75.6  c0.8-0.9,2-1.4,3.2-1.4c1.2,0,2.4,0.5,3.2,1.4c0.8,0.9,1.2,2.1,1.1,3.4l0,0H38l0-0.1C37.9,77.7,38.3,76.5,39.1,75.6z M38.1,81h8.4  l-0.3,4.5h-7.8L38.1,81z M22.3,75.6c0.8-0.9,2-1.4,3.2-1.4c1.2,0,2.4,0.5,3.2,1.4c0.8,0.9,1.2,2.1,1.1,3.4l0,0h-8.7l0-0.1  C21,77.7,21.4,76.5,22.3,75.6z M21.3,81h8.4l-0.3,4.5h-7.8L21.3,81z"/><path d="M59.2,29.7c0-4.6-3.8-8.4-8.4-8.4c-4.6,0-8.4,3.8-8.4,8.4c0,4.6,3.8,8.4,8.4,8.4C55.4,38.1,59.2,34.3,59.2,29.7z M50.7,36.1  c-3.5,0-6.4-2.9-6.4-6.4c0-3.5,2.9-6.4,6.4-6.4c3.5,0,6.4,2.9,6.4,6.4C57.2,33.2,54.3,36.1,50.7,36.1z"/><path d="M51.7,16.6V12c0-0.6-0.4-1-1-1s-1,0.4-1,1v4.6c0,0.6,0.4,1,1,1S51.7,17.1,51.7,16.6z"/><path d="M57.2,19.3c0.3,0,0.7-0.2,0.9-0.5l2.3-4c0.3-0.5,0.1-1.1-0.4-1.4c-0.5-0.3-1.1-0.1-1.4,0.4l-2.3,4c-0.3,0.5-0.1,1.1,0.4,1.4  C56.9,19.2,57.1,19.3,57.2,19.3z"/><path d="M62.6,23.9l3.9-2.3c0.5-0.3,0.6-0.9,0.4-1.4c-0.3-0.5-0.9-0.6-1.4-0.4l-3.9,2.3c-0.5,0.3-0.6,0.9-0.4,1.4  c0.2,0.3,0.5,0.5,0.9,0.5C62.2,24,62.4,24,62.6,23.9z"/><path d="M69.4,29.4c0-0.5-0.5-1-1-1c0,0,0,0,0,0l-4.6,0.1c-0.6,0-1,0.5-1,1c0,0.5,0.5,1,1,1c0,0,0,0,0,0l4.6-0.1  C69,30.4,69.5,29.9,69.4,29.4z"/><path d="M61.8,36.9l4,2.2c0.2,0.1,0.3,0.1,0.5,0.1c0.4,0,0.7-0.2,0.9-0.5c0.3-0.5,0.1-1.1-0.4-1.4l-4-2.2c-0.5-0.3-1.1-0.1-1.4,0.4  C61.1,36,61.3,36.6,61.8,36.9z"/><path d="M59.2,45.3c0.2,0.3,0.5,0.5,0.9,0.5c0.2,0,0.4,0,0.5-0.1c0.5-0.3,0.6-0.9,0.3-1.4l-2.4-3.9c-0.3-0.5-0.9-0.6-1.4-0.3  c-0.5,0.3-0.6,0.9-0.3,1.4L59.2,45.3z"/><path d="M51.1,41.8c-0.6,0-1,0.5-1,1l0.2,4.6c0,0.5,0.5,1,1,1c0,0,0,0,0,0c0.6,0,1-0.5,1-1l-0.2-4.6C52.2,42.2,51.7,41.8,51.1,41.8z  "/><path d="M42,46.3c0.1,0.1,0.3,0.1,0.5,0.1c0.4,0,0.7-0.2,0.9-0.5l2.1-4c0.3-0.5,0.1-1.1-0.4-1.4c-0.5-0.3-1.1-0.1-1.4,0.4l-2.1,4  C41.4,45.4,41.5,46,42,46.3z"/><path d="M35.8,40.2c0.2,0,0.4-0.1,0.5-0.2l3.8-2.5c0.5-0.3,0.6-0.9,0.3-1.4s-0.9-0.6-1.4-0.3l-3.8,2.5c-0.5,0.3-0.6,0.9-0.3,1.4  C35.2,40.1,35.5,40.2,35.8,40.2z"/><path d="M32.1,30.6c0,0.5,0.5,1,1,1c0,0,0,0,0.1,0l4.6-0.2c0.6,0,1-0.5,0.9-1c0-0.6-0.5-1-1-0.9L33,29.6  C32.5,29.6,32,30.1,32.1,30.6z"/><path d="M38.6,24.7c0.1,0.1,0.3,0.1,0.5,0.1c0.4,0,0.7-0.2,0.9-0.5c0.2-0.5,0.1-1.1-0.4-1.3l-4.1-2.1c-0.5-0.2-1.1-0.1-1.3,0.4  s-0.1,1.1,0.4,1.3L38.6,24.7z"/><path d="M43.5,19.7c0.2,0,0.4-0.1,0.6-0.2c0.5-0.3,0.6-0.9,0.3-1.4l-2.5-3.8c-0.3-0.5-0.9-0.6-1.4-0.3c-0.5,0.3-0.6,0.9-0.3,1.4  l2.5,3.8C42.8,19.6,43.2,19.7,43.5,19.7z"/><text x="0" y="115" fill="#000000" font-size="5px" font-weight="bold" font-family="'Helvetica Neue', Helvetica, Arial-Unicode, Arial, Sans-serif">Created by Made</text><text x="0" y="120" fill="#000000" font-size="5px" font-weight="bold" font-family="'Helvetica Neue', Helvetica, Arial-Unicode, Arial, Sans-serif">from the Noun Project</text></svg>